<svg width="97" height="97" viewBox="0 0 97 97" fill="none" xmlns="http://www.w3.org/2000/svg">
<path d="M61.4517 46.9266C59.6193 46.9266 58.0998 45.4071 58.0998 43.5747V39.1055C58.0998 32.5804 56.4908 29.0498 48.044 29.0498C39.5972 29.0498 37.9883 32.5804 37.9883 39.1055V43.5747C37.9883 45.4071 36.4688 46.9266 34.6364 46.9266C32.804 46.9266 31.2845 45.4071 31.2845 43.5747V39.1055C31.2845 34.9491 31.2845 22.3459 48.044 22.3459C64.8036 22.3459 64.8036 34.9491 64.8036 39.1055V43.5747C64.8036 45.4071 63.284 46.9266 61.4517 46.9266Z" fill="#FCF5D8"/>
<path d="M48.0458 63.0154C44.7386 63.0154 42.0124 60.2891 42.0124 56.9819C42.0124 53.6747 44.7386 50.9485 48.0458 50.9485C51.3531 50.9485 54.0788 53.6747 54.0788 56.9819C54.0788 60.2891 51.3531 63.0154 48.0458 63.0154ZM48.0458 56.3115C47.6883 56.3115 47.375 56.6244 47.375 56.9819C47.375 57.7417 48.7162 57.7417 48.7162 56.9819C48.7162 56.6244 48.4034 56.3115 48.0458 56.3115Z" fill="#FCF5D8"/>
<path d="M59.217 73.742H36.871C26.1449 73.742 22.3461 69.9432 22.3461 59.217V54.7478C22.3461 44.0217 26.1449 40.2229 36.871 40.2229H59.217C69.9432 40.2229 73.742 44.0217 73.742 54.7478V59.217C73.742 69.9432 69.9432 73.742 59.217 73.742ZM36.871 46.9267C29.7649 46.9267 29.0499 47.6418 29.0499 54.7478V59.217C29.0499 66.3231 29.7649 67.0382 36.871 67.0382H59.217C66.3231 67.0382 67.0382 66.3231 67.0382 59.217V54.7478C67.0382 47.6418 66.3231 46.9267 59.217 46.9267H36.871Z" fill="#FCF5D8"/>
<path d="M48.044 96.088C21.5416 96.088 0 74.5464 0 48.044C0 21.5416 21.5416 0 48.044 0C74.5464 0 96.088 21.5416 96.088 48.044C96.088 74.5464 74.5464 96.088 48.044 96.088ZM48.044 6.70382C25.251 6.70382 6.70382 25.251 6.70382 48.044C6.70382 70.837 25.251 89.3842 48.044 89.3842C70.837 89.3842 89.3842 70.837 89.3842 48.044C89.3842 25.251 70.837 6.70382 48.044 6.70382Z" fill="#FCF5D8"/>
</svg>
