<svg width="16" height="21" viewBox="0 0 16 21" fill="none" xmlns="http://www.w3.org/2000/svg">
<path d="M8 20.5C8.79565 20.5 9.55872 20.1839 10.1213 19.6213C10.6839 19.0587 11 18.2956 11 17.5H15.62L14.89 16.05C14.3069 14.8715 14.0024 13.5748 14 12.26V10.5C13.9998 9.36075 13.6752 8.24511 13.0643 7.28353C12.4533 6.32195 11.5812 5.55418 10.55 5.07C10.8458 4.5999 11.0018 4.05541 11 3.5C11 2.70435 10.6839 1.94129 10.1213 1.37868C9.55872 0.816071 8.79565 0.5 8 0.5C7.20436 0.5 6.44129 0.816071 5.87868 1.37868C5.31607 1.94129 5 2.70435 5 3.5C4.99817 4.05541 5.15423 4.5999 5.45 5.07C4.41876 5.55418 3.54668 6.32195 2.93573 7.28353C2.32479 8.24511 2.00023 9.36075 2 10.5V12.26C1.99766 13.5748 1.69315 14.8715 1.11 16.05L0.380005 17.5H5C5 18.2956 5.31607 19.0587 5.87868 19.6213C6.44129 20.1839 7.20436 20.5 8 20.5ZM8 2.5C8.19779 2.5 8.39113 2.55865 8.55558 2.66853C8.72002 2.77841 8.8482 2.93459 8.92388 3.11732C8.99957 3.30004 9.01938 3.50111 8.98079 3.69509C8.9422 3.88907 8.84696 4.06725 8.70711 4.20711C8.56726 4.34696 8.38908 4.4422 8.1951 4.48079C8.00111 4.51937 7.80005 4.49957 7.61732 4.42388C7.4346 4.34819 7.27842 4.22002 7.16854 4.05557C7.05865 3.89112 7 3.69778 7 3.5C7 3.23478 7.10536 2.98043 7.2929 2.79289C7.48043 2.60536 7.73479 2.5 8 2.5ZM9 17.5C9 17.7652 8.89465 18.0196 8.70711 18.2071C8.51958 18.3946 8.26522 18.5 8 18.5C7.73479 18.5 7.48043 18.3946 7.2929 18.2071C7.10536 18.0196 7 17.7652 7 17.5H9Z" fill="black"/>
</svg>
