<svg width="21" height="21" viewBox="0 0 21 21" fill="none" xmlns="http://www.w3.org/2000/svg">
<path d="M20.0244 17.8314L15.3092 13.1158C16.1103 11.8404 16.5753 10.3329 16.5753 8.71502C16.5753 4.13793 12.8648 0.427944 8.28787 0.427944C3.71095 0.427944 0.000793457 4.13793 0.000793457 8.71502C0.000793457 13.2923 3.71078 17.0019 8.28787 17.0019C10.0485 17.0019 11.6793 16.4515 13.0212 15.5162L17.6803 20.1756C18.0041 20.499 18.4285 20.6601 18.8524 20.6601C19.2768 20.6601 19.7006 20.499 20.0249 20.1756C20.6719 19.528 20.6719 18.4789 20.0244 17.8314ZM8.28787 14.317C5.19429 14.317 2.6862 11.8091 2.6862 8.71537C2.6862 5.62161 5.19429 3.11353 8.28787 3.11353C11.3816 3.11353 13.8895 5.62161 13.8895 8.71537C13.8895 11.8091 11.3816 14.317 8.28787 14.317Z" fill="black"/>
</svg>
