<svg width="21" height="21" viewBox="0 0 21 21" fill="none" xmlns="http://www.w3.org/2000/svg">
<g clip-path="url(#clip0_64_496)">
<path d="M4.48096 11.8125H14.4375C14.7856 11.8125 15.1194 11.6742 15.3656 11.4281C15.6117 11.1819 15.75 10.8481 15.75 10.5C15.75 10.1519 15.6117 9.81807 15.3656 9.57193C15.1194 9.32578 14.7856 9.1875 14.4375 9.1875H4.48096L6.17798 7.49048C6.42296 7.24413 6.56027 6.91069 6.55978 6.56326C6.5593 6.21583 6.42107 5.88277 6.1754 5.6371C5.92973 5.39143 5.59667 5.2532 5.24924 5.25272C4.90181 5.25223 4.56837 5.38954 4.32202 5.63452L0.384516 9.57202C0.262614 9.69386 0.165912 9.83853 0.099935 9.99776C0.0339584 10.157 0 10.3276 0 10.5C0 10.6724 0.0339584 10.843 0.099935 11.0022C0.165912 11.1615 0.262614 11.3061 0.384516 11.428L4.32202 15.3655C4.44376 15.4879 4.58846 15.5851 4.74783 15.6515C4.9072 15.7179 5.0781 15.7522 5.25075 15.7525C5.4234 15.7527 5.5944 15.7189 5.75396 15.6529C5.91351 15.5869 6.05848 15.4902 6.18056 15.3681C6.30265 15.246 6.39944 15.101 6.4654 14.9415C6.53136 14.7819 6.56519 14.6109 6.56495 14.4383C6.56471 14.2656 6.5304 14.0947 6.464 13.9353C6.3976 13.776 6.3004 13.6313 6.17798 13.5095L4.48096 11.8125Z" fill="black"/>
<path d="M19.6875 2.10988e-07H9.1875C9.01511 -9.75584e-05 8.8444 0.0337845 8.68511 0.0997092C8.52583 0.165634 8.3811 0.262308 8.2592 0.384205C8.13731 0.506101 8.04063 0.650829 7.97471 0.810113C7.90878 0.969397 7.8749 1.14011 7.875 1.3125V3.9375C7.875 4.2856 8.01328 4.61944 8.25942 4.86558C8.50556 5.11172 8.8394 5.25 9.1875 5.25C9.5356 5.25 9.86944 5.11172 10.1156 4.86558C10.3617 4.61944 10.5 4.2856 10.5 3.9375V2.625H18.375V18.375H10.5V17.0625C10.5 16.7144 10.3617 16.3806 10.1156 16.1344C9.86944 15.8883 9.5356 15.75 9.1875 15.75C8.8394 15.75 8.50556 15.8883 8.25942 16.1344C8.01328 16.3806 7.875 16.7144 7.875 17.0625V19.6875C7.8749 19.8599 7.90878 20.0306 7.97471 20.1899C8.04063 20.3492 8.13731 20.4939 8.2592 20.6158C8.3811 20.7377 8.52583 20.8344 8.68511 20.9003C8.8444 20.9662 9.01511 21.0001 9.1875 21H19.6875C19.8599 21.0001 20.0306 20.9662 20.1899 20.9003C20.3492 20.8344 20.4939 20.7377 20.6158 20.6158C20.7377 20.4939 20.8344 20.3492 20.9003 20.1899C20.9662 20.0306 21.0001 19.8599 21 19.6875V1.3125C21.0001 1.14011 20.9662 0.969397 20.9003 0.810113C20.8344 0.650829 20.7377 0.506101 20.6158 0.384205C20.4939 0.262308 20.3492 0.165634 20.1899 0.0997092C20.0306 0.0337845 19.8599 -9.75584e-05 19.6875 2.10988e-07Z" fill="black"/>
</g>
<defs>
<clipPath id="clip0_64_496">
<rect width="21" height="21" fill="white"/>
</clipPath>
</defs>
</svg>
